# xmcd
# 
# Track frame offsets:
#     150
#     14552
#     30298
#     47456
#     62185
#     74424
#     95966
#     115486
#     129879
#     148650
#     166175
#     185605
# 
# Disc length: 2657
# 
# Revision: 0
# Processed by: cddbd v1.5.2PL0 Copyright (c) Steve Scherf et al.
# Submitted via: BonkEnc v1.0.8
# 
DISCID=a90a5f0c
DTITLE=Reid Wells and Segovia - Segovia Road
DYEAR=2006
DGENRE=Country
TTITLE0=Someone out in Dallas
TTITLE1=Grandpa's Barn
TTITLE2=It happened in Monterrey
TTITLE3=I Imagine her in my arms
TTITLE4=I needed you
TTITLE5=Let it be me
TTITLE6=More than I ever bargained for
TTITLE7=She's just in her dreams
TTITLE8=Lost my Baby Blues
TTITLE9=Night Life
TTITLE10=You win again
TTITLE11=1862 Ride
EXTD=
EXTT0=
EXTT1=
EXTT2=
EXTT3=
EXTT4=
EXTT5=
EXTT6=
EXTT7=
EXTT8=
EXTT9=
EXTT10=
EXTT11=
PLAYORDER=
